<?xml version="1.0" encoding="UTF-8"?><svg id="Layer_1" xmlns="http://www.w3.org/2000/svg" viewBox="0 0 251.93 210.65"><defs><style>.cls-1{fill:#231f20;}</style></defs><path class="cls-1" d="M100.65,0h2.46c5.99.13,11.86,1.99,17.01,5,7.31,4.32,14.03,9.54,20.88,14.54,7.09,5.08,14.19,10.16,21.23,15.32-4.79.13-9.61-.25-14.37.29-1.87.33-4.01.55-5.4,2.01-.91.98-.52,2.48.23,3.43,1.98,2.68,5.1,4.12,8.09,5.38,7.61,3.13,15.87,4.34,24.06,4.51,4.31.03,8.59,1.21,12.29,3.43,5.17,2.99,10.43,5.82,15.6,8.81,1.12.61,2.23,1.61,2.14,3.01.05,7.73-.69,15.49-2.5,23.01-.29.98-.43,2.13-1.24,2.84-.94.53-1.92-.16-2.79-.49-11.25-5.31-23.49-8-35.67-10.19-6.69-1.28-13.51-2.03-20-4.17-2.36-.72-3.85-2.79-5.35-4.61-4.65-5.59-9.76-10.85-15.64-15.15-1.83-1.27-3.89-2.6-6.22-2.49-1.42.05-2.41,1.52-2.12,2.87.43,3.02,2.39,5.54,4.36,7.76,3.21,3.55,6.69,6.85,9.77,10.5.51.64.94,1.34,1.34,2.06-5.83-4.25-11.32-8.94-17.2-13.12-7.9-5.78-16-11.26-23.95-16.97-4.82-3.36-9.45-7.07-13.21-11.62-2.69-3.37-4.58-7.58-4.41-11.96.1-4.57,2.42-8.82,5.53-12.07,6.51-6.88,15.59-11.4,25.1-11.92Z"/><path class="cls-1" d="M67.97,27.77c.8,1.07.78,2.46,1.23,3.67,1.13,3.09,3.03,5.86,5.31,8.22,5.39,5.69,11.96,10.06,18.36,14.52,8.32,5.8,16.59,11.68,24.68,17.81,4.82,3.73,9.71,7.4,14.19,11.54,8.72,7.91,16.26,17.01,23.26,26.45,9.8,13.04,20.83,25.51,34.61,34.47,6.93,4.5,14.61,8.1,22.8,9.53,6.98,1.22,14.37.25,20.67-3.07,6.58-3.48,12.22-8.79,15.92-15.26.83-1.42,1.53-2.9,2.32-4.34-.33,3.55-1.58,6.96-3.39,10.01-3.7,6.56-8.88,12.46-15.52,16.14-5.83,3.21-12.59,4.95-19.26,4.32-6.86-.63-13.36-3.23-19.44-6.34-7.48-3.94-14.24-9.12-20.39-14.89-7.25-6.81-13.97-14.21-19.67-22.37-12.89-17.96-29.6-32.84-47.53-45.61-8.19-5.87-16.7-11.28-24.66-17.47-4.13-3.27-8.44-6.58-11.18-11.18-2.94-4.78-3.42-10.73-2.3-16.14Z"/><path class="cls-1" d="M150.84,37.31c9.26-.22,18.55-.25,27.75.83,5.64.62,11.41,1.6,16.35,4.55,4.04,2.33,6.66,6.5,7.93,10.91-4.67-2.28-9.76-3.61-14.91-4.2-7.59-.98-15.29-.7-22.84-1.97-4.92-.77-9.77-2.06-14.36-4.01-2.14-.98-4.32-2.05-5.95-3.79-.45-.44-.32-1.22.3-1.43,1.85-.56,3.79-.86,5.73-.88Z"/><path class="cls-1" d="M11.4,46.37c7.49-5.61,17.18-8.13,26.45-7.01,7.88.88,15.46,4.38,21.14,9.92,2.85,2.69,5.04,5.96,7.34,9.09,6.24,8.75,11.64,18.06,17.92,26.78-3.79-.39-7.55-1-11.35-1.3-2.07-.07-4.36-.14-6.14,1.08-1.23.8-1.52,2.53-.86,3.8,1.11,2.27,3.21,3.85,5.23,5.26,6.42,4.47,13.95,7.04,21.57,8.54,1.83.29,3.57,1.18,4.74,2.64,8.59,10,19.56,17.49,30.44,24.74,1.47.83.78,2.58.49,3.87-.5,1.76-.6,3.69-1.57,5.28-.86.52-1.85.05-2.7-.23-5.27-2.06-10.58-4.09-16.06-5.57-8.22-2.22-16.63-3.58-25.03-4.92-8.23-1.33-16.51-2.51-24.52-4.89-1.89-.51-3.75-1.15-5.47-2.08-1.95-1.09-3.35-2.98-4.12-5.06-2.23-5.57-5.49-10.67-9.21-15.36-1.53-1.79-3.31-3.59-5.61-4.3-1.66-.56-3.45.66-3.8,2.31-.68,2.82.17,5.78,1.48,8.29,2.99,5.87,5.99,11.76,9.66,17.24,3.61,5.3,8.41,9.81,14,12.98,5.48,3.19,11.6,5.14,17.79,6.41,9.93,2.09,20,3.39,29.99,5.17,7.54,1.39,15.01,3.18,22.31,5.54,1.73.58,3.56,1,5.06,2.08,1.17.83,1.96,2.07,2.57,3.34,1.64,3.47,2.81,7.18,3.27,11,.17,1.67.82,3.59,2.54,4.22,1.76.8,4.33.96,5.52-.86,1.11-1.82.81-4.1.74-6.13-.61-4.42-1.78-8.79-3.67-12.84-.91-2.23-.64-4.75.26-6.94,1.13-2.78,1.79-5.72,2.73-8.57,4.58,3,8.86,6.48,13.07,9.98,5.98,5.27,11.86,10.9,15.91,17.84,2.42,4.42,4.12,9.6,3.13,14.67-.93,4.33-4.16,7.67-7.55,10.29-6.08,4.53-13.63,6.42-21,7.57-12.02,1.8-24.3.62-36.1-2.02-10.7-2.39-21.08-6.45-30.32-12.38-9.47-6.02-17.54-14.09-23.98-23.26-4.79-6.71-8.56-14.05-12.43-21.31-3.96-7.51-7.86-15.05-12.07-22.42-6.55-11.42-13.85-22.39-20.81-33.56-3.37-5.51-7.07-10.97-8.84-17.25-1.19-4.15-1.36-8.73.32-12.77,1.49-3.68,4.31-6.64,7.49-8.93Z"/><path class="cls-1" d="M200.89,44.11c6.74,3.96,12.28,10.15,14.98,17.55,3.05,8.3,2.93,17.43,1.31,26.02-.99,5.17-2.62,10.2-4.61,15.07-1.1,2.68-.94,5.67-.28,8.44.89,5,1.13,10.27-.31,15.19-1.78,1.15-4.07-1.1-3.91-2.94.2-4.45.2-9-1.07-13.31-.82-2.69-3.11-4.63-5.67-5.6-16.1-6.84-34.1-6.5-50.51-12.31-5.45-2.01-10.34-5.43-14.24-9.72-2.51-2.8-5.12-5.51-7.54-8.39.71-.33,1.3.26,1.91.51,6.05,3.24,12.7,5.19,19.4,6.51,6.38,1.23,12.83,2.07,19.19,3.41,9.61,2,19.25,4.44,28.08,8.83,1.35.64,2.93,1.3,4.43.75,1.26-.54,1.86-1.92,2.18-3.18,2.54-10.58,4.12-21.62,2.44-32.46-.7-4.46-2.2-8.87-4.84-12.56-.4-.55-.7-1.17-.94-1.8Z"/><path class="cls-1" d="M116.34,58.96c-.21-.59-.84-1.55-.04-1.95,1.24.17,2.3.91,3.35,1.55,6.5,4.19,11.62,10.09,16.55,15.95-7.96-3-15.84-7.78-19.86-15.56Z"/><path class="cls-1" d="M0,70.95c.12-1.71.2-3.47.93-5.06,1.01,5.73,3.44,11.09,6.53,15.99,3.06,4.92,6.1,9.86,9.29,14.7,9.83,15.08,18.84,30.69,26.96,46.76,3.29,6.53,6.82,12.95,10.94,18.99,6.1,9.01,13.7,17.05,22.58,23.36,9.1,6.5,19.48,11.13,30.29,13.95,15.38,4.01,31.73,5.32,47.34,1.85,7.92-1.89,15.97-5.35,21.12-11.92-.4,2.14-.99,4.28-2.17,6.14-2.41,4.02-6.42,6.73-10.47,8.91-7.95,4.16-17,5.46-25.85,6.02h-10.87c-8.69-.56-17.31-2.15-25.58-4.87-9.02-2.99-17.77-7.01-25.54-12.53-10.58-7.44-19.26-17.4-25.83-28.5-6.85-11.81-12.77-24.14-19.69-35.91-7.36-12.58-15.47-24.7-23.09-37.12-3.36-5.5-6.58-11.38-6.9-17.97v-2.78Z"/><path class="cls-1" d="M220.65,72.93c8.52,6.06,17.22,12.28,23.55,20.72,4.62,6.06,7.39,13.51,7.73,21.13v3.38c-.4,6.85-2.64,13.63-6.64,19.24-5.01,7.1-12.69,12.32-21.19,14.19-7.11,1.51-14.48-.05-21.09-2.78-12.11-4.85-22.4-13.27-31.38-22.57-8.14-8.54-14.98-18.19-22.21-27.49-1.64-2.17-3.39-4.27-4.9-6.53,5.98,2.92,12.42,4.78,18.96,5.92,10.94,2.19,22.21,3.13,32.76,6.93,2.73,1.34,6.34,1.71,7.92,4.66,2.07,4.1,1.57,8.86,1.47,13.3-.21,3.19,2.68,6.14,5.86,6.11,1.38.05,2.53-1.1,2.84-2.38,1.45-5.21,1.02-10.7.36-16-.24-2.14-1.2-4.42-.14-6.48,4.27-9.85,6.49-20.6,6.09-31.35Z"/><path class="cls-1" d="M68.68,88.93c-.98-.8-.46-2.57.83-2.65,4.95-.54,9.87.61,14.75,1.35,7.05.99,14.1,2.02,21.05,3.57,4.42,1,8.97,1.89,12.95,4.17,5.5,2.97,9.54,8.36,11.1,14.38-4.01-2.53-8.49-4.28-13.11-5.33-9.54-2.2-19.41-2.74-28.82-5.51-6.85-1.95-13.44-5.17-18.74-9.96Z"/><path class="cls-1" d="M126.18,98.56c7.38,4.78,13.98,11.56,16.41,20.22,2.29,7.25.86,14.93-.9,22.13-.76,3.27-1.77,6.47-2.97,9.6-.64,1.6-.42,3.39.32,4.91,2.41,5.25,4.17,11,3.71,16.85-.1,1.28-1.47,1.42-2.49,1.31-1.28-1.22-1.24-3.08-1.64-4.68-.82-3.55-2.03-7.01-3.56-10.32-1.06-2.31-3.1-4.09-5.47-4.95-12.83-4.7-26.34-7.09-39.8-9.19-6.81-1.18-13.64-2.27-20.35-3.91-6.4-1.61-12.55-4.42-17.7-8.56-5.23-4.23-9.62-9.6-12.53-15.67,1.1.25,1.82,1.2,2.73,1.8,4.12,2.96,8.69,5.28,13.49,6.91,8.02,2.76,16.48,3.83,24.81,5.27,13.43,2.08,26.94,4.39,39.64,9.39,1.74.61,3.4,1.46,5.2,1.89,1.77.37,4.09-.37,4.5-2.33,2.34-9.66,4.37-19.79,2.27-29.68-.85-4.11-3.1-7.73-5.67-10.97Z"/><path class="cls-1" d="M32.35,100.7c-.34-1.45,1.6-2.22,2.52-1.2,4.25,3.63,7.16,8.52,9.81,13.38.95,1.79,1.8,3.65,2.33,5.62-4.36-2.56-8.42-5.81-11.57-9.78-1.71-2.34-2.65-5.17-3.08-8.02Z"/></svg>